<svg width="74" height="74" viewBox="0 0 74 74" fill="none" xmlns="http://www.w3.org/2000/svg">
<mask id="mask0_184_222" style="mask-type:alpha" maskUnits="userSpaceOnUse" x="5" y="5" width="64" height="64">
<path fill-rule="evenodd" clip-rule="evenodd" d="M6.67226 11.7772C10.6839 4.3738 21.9058 5.02362 29.8538 7.10026C36.1533 8.74619 37.4572 17.3633 42.7975 21.216C49.6756 26.1782 60.7497 24.3811 64.5506 32.1321C69.2325 41.6797 70.2512 55.1327 63.2764 62.9782C56.3385 70.7823 44.0747 68.1074 33.9347 66.5701C26.2236 65.4011 18.38 62.2956 14.0931 55.5218C10.4482 49.7626 15.526 42.4467 14.3756 35.6651C12.9178 27.0716 2.56106 19.3644 6.67226 11.7772Z" fill="#F78D80"/>
</mask>
<g mask="url(#mask0_184_222)">
<rect x="-5.5835" y="-5.58301" width="97.3333" height="97.3333" fill="#F7F4B1"/>
</g>
<path d="M46.1252 15.7085L52.0052 19.9979L59.2846 19.9845L61.5199 26.9112L67.4168 31.1783L65.1546 38.096L67.4168 45.0138L61.5199 49.2808L59.2846 56.2076L52.0052 56.1941L46.1252 60.4836L40.2451 56.1941L32.9658 56.2076L30.7304 49.2808L24.8335 45.0138L27.0958 38.096L24.8335 31.1783L30.7304 26.9112L32.9658 19.9845L40.2451 19.9979L46.1252 15.7085Z" stroke="black" stroke-width="3.20175" stroke-linecap="round" stroke-linejoin="round"/>
<path d="M38.2896 38.0959L43.8864 43.6928L55.0802 32.499" stroke="black" stroke-width="3.20175" stroke-linecap="round" stroke-linejoin="round"/>
</svg>
